<svg width="22" height="19" viewBox="0 0 22 19" fill="none" xmlns="http://www.w3.org/2000/svg">
<path d="M0.461606 8.39673C-0.152232 9.00708 -0.152232 9.99829 0.461606 10.6086L8.31875 18.4211C8.93259 19.0315 9.92946 19.0315 10.5433 18.4211C11.1571 17.8108 11.1571 16.8196 10.5433 16.2092L5.3625 11.0627L20.4286 11.0627C21.2978 11.0627 22 10.3645 22 9.50025C22 8.63599 21.2978 7.93775 20.4286 7.93775L5.36741 7.93775L10.5384 2.79126C11.1522 2.18091 11.1522 1.1897 10.5384 0.579347C9.92455 -0.0310048 8.92768 -0.0310047 8.31384 0.579347L0.456695 8.39185L0.461606 8.39673Z" fill="#508F96"/>
</svg>
