<svg width="15" height="15" viewBox="0 0 15 15" fill="none" xmlns="http://www.w3.org/2000/svg">
<path d="M14.5595 2.76519C15.1454 2.20366 15.1454 1.29175 14.5595 0.730225C13.9735 0.168701 13.022 0.168701 12.436 0.730225L7.5001 5.46499L2.55947 0.734717C1.97354 0.173193 1.02197 0.173193 0.436035 0.734717C-0.149902 1.29624 -0.149902 2.20815 0.436035 2.76968L5.37666 7.49995L0.440723 12.2347C-0.145215 12.7962 -0.145215 13.7082 0.440723 14.2697C1.02666 14.8312 1.97822 14.8312 2.56416 14.2697L7.5001 9.53491L12.4407 14.2652C13.0267 14.8267 13.9782 14.8267 14.5642 14.2652C15.1501 13.7037 15.1501 12.7917 14.5642 12.2302L9.62354 7.49995L14.5595 2.76519Z" fill="#69A8AF"/>
</svg>
